<svg width="42" height="42" viewBox="0 0 42 42" fill="none" xmlns="http://www.w3.org/2000/svg">
<g clip-path="url(#clip0_841_723)">
<path d="M32.1562 0H9.84375C4.4072 0 0 4.4072 0 9.84375V32.1562C0 37.5928 4.4072 42 9.84375 42H32.1562C37.5928 42 42 37.5928 42 32.1562V9.84375C42 4.4072 37.5928 0 32.1562 0Z" fill="#5865F2"/>
<mask id="mask0_841_723" style="mask-type:luminance" maskUnits="userSpaceOnUse" x="4" y="8" width="34" height="26">
<path d="M4.59375 8.36719H37.4062V33.7854H4.59375V8.36719Z" fill="white"/>
</mask>
<g mask="url(#mask0_841_723)">
<path d="M32.3707 10.6309C30.2434 9.6544 27.9984 8.95804 25.6919 8.55931C25.671 8.55543 25.6493 8.55826 25.63 8.56739C25.6108 8.57652 25.5949 8.59149 25.5846 8.61017C25.2962 9.12303 24.9766 9.7924 24.753 10.3184C22.2309 9.94071 19.7219 9.94071 17.2516 10.3184C17.0278 9.78059 16.6967 9.12303 16.407 8.61017C16.3962 8.59187 16.3803 8.57723 16.3611 8.56816C16.3419 8.55909 16.3205 8.556 16.2995 8.55931C13.9928 8.95724 11.7477 9.65362 9.62069 10.6309C9.60248 10.6387 9.58712 10.6518 9.57672 10.6687C5.32291 17.0238 4.15774 23.2227 4.72933 29.3449C4.73092 29.3599 4.73552 29.3744 4.74285 29.3876C4.75017 29.4008 4.76009 29.4124 4.77199 29.4217C7.57844 31.4828 10.2971 32.7341 12.9653 33.5634C12.986 33.5696 13.0082 33.5693 13.0288 33.5626C13.0493 33.5558 13.0674 33.543 13.0804 33.5257C13.7116 32.6637 14.2742 31.755 14.7567 30.7993C14.7633 30.7862 14.7671 30.7719 14.7678 30.7572C14.7685 30.7425 14.7661 30.7279 14.7607 30.7142C14.7553 30.7006 14.7471 30.6882 14.7366 30.678C14.7261 30.6677 14.7135 30.6598 14.6997 30.6548C13.8072 30.3161 12.9576 29.9035 12.1402 29.4348C12.1253 29.426 12.1128 29.4137 12.1038 29.399C12.0948 29.3842 12.0895 29.3675 12.0885 29.3503C12.0875 29.333 12.0907 29.3158 12.0979 29.3001C12.1051 29.2844 12.1161 29.2707 12.1299 29.2602C12.3023 29.1313 12.4718 28.9985 12.6381 28.8619C12.6527 28.8498 12.6703 28.8421 12.6891 28.8395C12.7078 28.837 12.7269 28.8397 12.7441 28.8474C18.1142 31.2992 23.9278 31.2992 29.2344 28.8474C29.2517 28.8392 29.271 28.8361 29.29 28.8384C29.309 28.8408 29.327 28.8484 29.3418 28.8606C29.5083 28.998 29.6783 29.1312 29.8514 29.2602C29.8652 29.2706 29.8763 29.2842 29.8836 29.2998C29.8909 29.3155 29.8943 29.3327 29.8934 29.3499C29.8925 29.3671 29.8874 29.3839 29.8785 29.3987C29.8696 29.4135 29.8572 29.4259 29.8424 29.4348C29.0246 29.9123 28.1679 30.32 27.2815 30.6534C27.2678 30.6587 27.2553 30.6668 27.2448 30.6772C27.2344 30.6877 27.2263 30.7002 27.2211 30.7139C27.2158 30.7277 27.2135 30.7424 27.2144 30.7571C27.2152 30.7718 27.2191 30.7862 27.2259 30.7993C27.7168 31.7474 28.2765 32.6582 28.9007 33.5244C28.9134 33.5421 28.9313 33.5554 28.952 33.5624C28.9726 33.5694 28.995 33.5698 29.0158 33.5634C31.6969 32.7341 34.4156 31.4828 37.2222 29.4217C37.2343 29.4128 37.2443 29.4015 37.2516 29.3885C37.259 29.3755 37.2635 29.3611 37.2649 29.3462C37.949 22.2684 36.1189 16.1201 32.4134 10.67C32.4043 10.6523 32.3892 10.6384 32.3707 10.6309ZM15.5586 25.6172C13.9418 25.6172 12.6096 24.1329 12.6096 22.31C12.6096 20.4871 13.916 19.0029 15.5586 19.0029C17.214 19.0029 18.5332 20.5003 18.5073 22.31C18.5073 24.1329 17.2012 25.6172 15.5586 25.6172ZM26.4615 25.6172C24.8447 25.6172 23.5127 24.1329 23.5127 22.31C23.5127 20.4871 24.8189 19.0029 26.4615 19.0029C28.1169 19.0029 29.4362 20.5003 29.4104 22.31C29.4104 24.1329 28.1169 25.6172 26.4615 25.6172Z" fill="white"/>
</g>
</g>
<defs>
<clipPath id="clip0_841_723">
<rect width="42" height="42" fill="white"/>
</clipPath>
</defs>
</svg>
