<svg width="17" height="16" viewBox="0 0 17 16" fill="none" xmlns="http://www.w3.org/2000/svg">
<path d="M8.33337 16C7.22671 16 6.18671 15.7899 5.21337 15.3696C4.24004 14.9493 3.39337 14.3795 2.67337 13.66C1.95337 12.94 1.38351 12.0933 0.963774 11.12C0.544041 10.1467 0.333907 9.10667 0.333374 8C0.333374 6.89333 0.543507 5.85333 0.963774 4.88C1.38404 3.90667 1.95391 3.06 2.67337 2.34C3.39337 1.62 4.24004 1.05013 5.21337 0.6304C6.18671 0.210667 7.22671 0.000533333 8.33337 0C9.44004 0 10.48 0.210133 11.4534 0.6304C12.4267 1.05067 13.2734 1.62053 13.9934 2.34C14.7134 3.06 15.2835 3.90667 15.7038 4.88C16.124 5.85333 16.3339 6.89333 16.3334 8C16.3334 9.10667 16.1232 10.1467 15.703 11.12C15.2827 12.0933 14.7128 12.94 13.9934 13.66C13.2734 14.38 12.4267 14.9501 11.4534 15.3704C10.48 15.7907 9.44004 16.0005 8.33337 16Z" fill="#63C161"/>
<g clip-path="url(#clip0_498_397)">
<path d="M6.49302 5.16037L5.44016 5.7005L6.02976 4.73599L5.44016 3.77148L6.49302 4.31161L7.54589 3.77148L6.95629 4.73599L7.54589 5.7005L6.49302 5.16037ZM11.5468 8.94124L12.5997 8.40112L12.01 9.36562L12.5997 10.3301L11.5468 9.79001L10.4939 10.3301L11.0835 9.36562L10.4939 8.40112L11.5468 8.94124ZM12.5997 3.77148L12.01 4.73599L12.5997 5.7005L11.5468 5.16037L10.4939 5.7005L11.0835 4.73599L10.4939 3.77148L11.5468 4.31161L12.5997 3.77148ZM8.95252 7.93044L9.98012 6.98908L9.08729 6.17118L8.05969 7.11253L8.95252 7.93044ZM9.3863 5.81238L10.3718 6.71516C10.536 6.85791 10.536 7.10868 10.3718 7.25914L5.457 11.7615C5.29276 11.9119 5.01901 11.9119 4.86319 11.7615L3.8777 10.8587C3.71345 10.7159 3.71345 10.4652 3.8777 10.3147L8.79249 5.81238C8.95673 5.66192 9.23048 5.66192 9.3863 5.81238Z" fill="white"/>
</g>
<defs>
<clipPath id="clip0_498_397">
<rect width="10.1075" height="9.25926" fill="white" transform="translate(3.33337 3)"/>
</clipPath>
</defs>
</svg>
