<svg width="24" height="24" viewBox="0 0 24 24" fill="none" xmlns="http://www.w3.org/2000/svg">
<path d="M0.876 3.3351C0.986018 3.16943 1.15733 3.05424 1.35227 3.01485C1.5472 2.97547 1.7498 3.01513 1.9155 3.1251L4.1655 4.6266C4.32466 4.73945 4.43357 4.90987 4.46913 5.10171C4.50469 5.29355 4.4641 5.49169 4.35596 5.65408C4.24783 5.81648 4.08067 5.93035 3.88996 5.97152C3.69925 6.01269 3.5 5.97792 3.3345 5.8746L1.0845 4.3746C0.919074 4.26434 0.80419 4.09292 0.765093 3.898C0.725997 3.70308 0.765888 3.50062 0.876 3.3351ZM12 3.0006C10.2098 3.0006 8.4929 3.71175 7.22703 4.97762C5.96116 6.2435 5.25 7.96038 5.25 9.7506V13.3521L3.804 16.9716C3.7584 17.0854 3.74138 17.2086 3.75445 17.3305C3.76751 17.4524 3.81025 17.5692 3.87894 17.6708C3.94762 17.7723 4.04015 17.8555 4.14842 17.913C4.25669 17.9705 4.37741 18.0006 4.5 18.0006H19.5C19.6224 18.0005 19.7429 17.9704 19.851 17.913C19.9591 17.8556 20.0515 17.7726 20.1202 17.6712C20.1888 17.5699 20.2316 17.4533 20.2448 17.3316C20.2581 17.2099 20.2413 17.0868 20.196 16.9731L18.75 13.3506V9.7506C18.75 7.96038 18.0388 6.2435 16.773 4.97762C15.5071 3.71175 13.7902 3.0006 12 3.0006ZM12 21.7506C11.3348 21.7508 10.6884 21.5298 10.1624 21.1225C9.63647 20.7152 9.26081 20.1447 9.0945 19.5006H14.9055C14.7392 20.1447 14.3635 20.7152 13.8376 21.1225C13.3116 21.5298 12.6652 21.7508 12 21.7506ZM22.0845 3.1266C22.25 3.02327 22.4492 2.9885 22.64 3.02967C22.8307 3.07084 22.9978 3.18471 23.106 3.34711C23.2141 3.5095 23.2547 3.70765 23.2191 3.89948C23.1836 4.09132 23.0747 4.26175 22.9155 4.3746L20.6655 5.8746C20.5 5.97792 20.3008 6.01269 20.11 5.97152C19.9193 5.93035 19.7522 5.81648 19.644 5.65408C19.5359 5.49169 19.4953 5.29355 19.5309 5.10171C19.5664 4.90987 19.6753 4.73945 19.8345 4.6266L22.0845 3.1266ZM0 9.7506C0 9.55168 0.0790176 9.36092 0.21967 9.22027C0.360322 9.07961 0.551088 9.0006 0.75 9.0006H3C3.19891 9.0006 3.38968 9.07961 3.53033 9.22027C3.67098 9.36092 3.75 9.55168 3.75 9.7506C3.75 9.94951 3.67098 10.1403 3.53033 10.2809C3.38968 10.4216 3.19891 10.5006 3 10.5006H0.75C0.551088 10.5006 0.360322 10.4216 0.21967 10.2809C0.0790176 10.1403 0 9.94951 0 9.7506ZM23.25 9.0006C23.4489 9.0006 23.6397 9.07961 23.7803 9.22027C23.921 9.36092 24 9.55168 24 9.7506C24 9.94951 23.921 10.1403 23.7803 10.2809C23.6397 10.4216 23.4489 10.5006 23.25 10.5006H21C20.8011 10.5006 20.6103 10.4216 20.4697 10.2809C20.329 10.1403 20.25 9.94951 20.25 9.7506C20.25 9.55168 20.329 9.36092 20.4697 9.22027C20.6103 9.07961 20.8011 9.0006 21 9.0006H23.25Z" fill="#C80000"/>
</svg>
