<svg width="13" height="7" viewBox="0 0 10 5" fill="none" xmlns="http://www.w3.org/2000/svg">
<path d="M4.8807 0.338626C4.79209 0.338626 4.71058 0.353123 4.63619 0.382114C4.56125 0.411106 4.48822 0.461156 4.41711 0.532268L0.815881 4.1335C0.7393 4.21008 0.698275 4.30416 0.692804 4.41575C0.687334 4.52734 0.72836 4.6269 0.815881 4.71442C0.903403 4.80194 1.00022 4.8457 1.10634 4.8457C1.21246 4.8457 1.30928 4.80194 1.3968 4.71442L4.8807 1.2297L8.3646 4.71442C8.44118 4.791 8.53527 4.83203 8.64686 4.8375C8.75845 4.84297 8.858 4.80194 8.94552 4.71442C9.03304 4.6269 9.0768 4.53008 9.0768 4.42396C9.0768 4.31784 9.03304 4.22102 8.94552 4.1335L5.34429 0.532268C5.27318 0.461156 5.20016 0.411106 5.12522 0.382114C5.05082 0.353123 4.96932 0.338626 4.8807 0.338626Z" fill="black" fill-opacity="1"/>
</svg>
