<svg width="14" height="14" viewBox="0 0 14 14" fill="none" xmlns="http://www.w3.org/2000/svg">
<path fill-rule="evenodd" clip-rule="evenodd" d="M6.99998 13.6673C10.682 13.6673 13.6666 10.6827 13.6666 7.00065C13.6666 3.31865 10.682 0.333984 6.99998 0.333984C3.31798 0.333984 0.333313 3.31865 0.333313 7.00065C0.333313 10.6827 3.31798 13.6673 6.99998 13.6673ZM10.5806 4.89065C10.6118 4.85852 10.6362 4.82044 10.6524 4.77867C10.6685 4.73691 10.6761 4.69232 10.6746 4.64757C10.6732 4.60281 10.6627 4.55881 10.6438 4.5182C10.625 4.47758 10.5982 4.44117 10.5649 4.41115C10.5317 4.38113 10.4928 4.35811 10.4505 4.34347C10.4082 4.32883 10.3633 4.32286 10.3187 4.32592C10.274 4.32899 10.2304 4.34102 10.1905 4.36131C10.1505 4.38159 10.1151 4.40971 10.0863 4.44398L6.09331 8.85632L3.89665 6.75932C3.83273 6.69823 3.74716 6.66503 3.65877 6.66703C3.57038 6.66903 3.4864 6.70607 3.42531 6.76998C3.36422 6.8339 3.33103 6.91947 3.33303 7.00786C3.33503 7.09625 3.37206 7.18023 3.43598 7.24132L5.88065 9.57465L6.12831 9.81132L6.35798 9.55732L10.5806 4.89065Z" fill="#0066FF"/>
</svg>
