<svg width="13" height="14" viewBox="0 0 13 14" fill="none" xmlns="http://www.w3.org/2000/svg">
<path fill-rule="evenodd" clip-rule="evenodd" d="M6.33301 0.328125C7.92431 0.328125 9.45043 0.960266 10.5756 2.08548C11.7009 3.2107 12.333 4.73683 12.333 6.32812C12.333 8.37746 11.2157 10.0548 10.0383 11.2581C9.45002 11.8527 8.8082 12.3919 8.12101 12.8688L7.83701 13.0621L7.70367 13.1508L7.45234 13.3108L7.22834 13.4475L6.95101 13.6088C6.76268 13.716 6.54971 13.7723 6.33301 13.7723C6.11631 13.7723 5.90334 13.716 5.71501 13.6088L5.43767 13.4475L5.09101 13.2341L4.96301 13.1508L4.68967 12.9688C3.94833 12.467 3.25772 11.8941 2.62767 11.2581C1.45034 10.0541 0.333008 8.37746 0.333008 6.32812C0.333008 4.73683 0.965149 3.2107 2.09037 2.08548C3.21559 0.960266 4.74171 0.328125 6.33301 0.328125ZM6.33301 1.66146C5.09533 1.66146 3.90835 2.15312 3.03318 3.02829C2.15801 3.90346 1.66634 5.09045 1.66634 6.32812C1.66634 7.87613 2.51434 9.23479 3.58034 10.3255C4.03876 10.7894 4.53417 11.2152 5.06168 11.5988L5.36701 11.8161C5.46567 11.8848 5.56034 11.9488 5.65167 12.0081L5.91167 12.1748L6.14034 12.3141L6.33301 12.4268L6.63634 12.2475L6.88101 12.0941C7.01101 12.0115 7.15101 11.9188 7.29901 11.8161L7.60434 11.5988C8.13185 11.2152 8.62726 10.7894 9.08567 10.3255C10.1517 9.23546 10.9997 7.87613 10.9997 6.32812C10.9997 5.09045 10.508 3.90346 9.63284 3.02829C8.75767 2.15312 7.57068 1.66146 6.33301 1.66146ZM6.33301 3.66146C7.04025 3.66146 7.71853 3.94241 8.21863 4.44251C8.71872 4.9426 8.99967 5.62088 8.99967 6.32812C8.99967 7.03537 8.71872 7.71365 8.21863 8.21374C7.71853 8.71384 7.04025 8.99479 6.33301 8.99479C5.62576 8.99479 4.94749 8.71384 4.44739 8.21374C3.94729 7.71365 3.66634 7.03537 3.66634 6.32812C3.66634 5.62088 3.94729 4.9426 4.44739 4.44251C4.94749 3.94241 5.62576 3.66146 6.33301 3.66146ZM6.33301 4.99479C5.97939 4.99479 5.64025 5.13527 5.3902 5.38532C5.14015 5.63537 4.99967 5.9745 4.99967 6.32812C4.99967 6.68175 5.14015 7.02089 5.3902 7.27093C5.64025 7.52098 5.97939 7.66146 6.33301 7.66146C6.68663 7.66146 7.02577 7.52098 7.27582 7.27093C7.52587 7.02089 7.66634 6.68175 7.66634 6.32812C7.66634 5.9745 7.52587 5.63537 7.27582 5.38532C7.02577 5.13527 6.68663 4.99479 6.33301 4.99479Z" fill="#545454"/>
</svg>
