<svg width="14" height="13" viewBox="0 0 14 13" fill="none" xmlns="http://www.w3.org/2000/svg">
<path d="M8.50303 5.17057C9.14703 5.17057 9.6697 5.69324 9.6697 6.33724V9.50324C9.6697 10.2991 9.35356 11.0623 8.79082 11.625C8.22809 12.1878 7.46486 12.5039 6.66903 12.5039C5.87321 12.5039 5.10998 12.1878 4.54724 11.625C3.98451 11.0623 3.66837 10.2991 3.66837 9.50324V6.33724C3.66837 5.69324 4.19037 5.17057 4.83503 5.17057H8.50303ZM8.50303 6.17057H4.83503C4.79083 6.17057 4.74844 6.18813 4.71718 6.21939C4.68593 6.25064 4.66837 6.29304 4.66837 6.33724V9.50324C4.66837 10.0338 4.87915 10.5427 5.25435 10.9179C5.62955 11.2931 6.13842 11.5039 6.66903 11.5039C7.19964 11.5039 7.70852 11.2931 8.08372 10.9179C8.45892 10.5427 8.6697 10.0338 8.6697 9.50324V6.33724C8.6697 6.29304 8.65214 6.25064 8.62088 6.21939C8.58963 6.18813 8.54724 6.17057 8.50303 6.17057ZM1.16703 5.17057H3.42103C3.18583 5.45463 3.04219 5.80327 3.00903 6.17057H1.16703C1.12283 6.17057 1.08044 6.18813 1.04918 6.21939C1.01793 6.25064 1.00037 6.29304 1.00037 6.33724V8.50324C1.00032 8.75516 1.05737 9.00382 1.16721 9.23053C1.27706 9.45724 1.43685 9.65612 1.63459 9.81221C1.83232 9.96831 2.06286 10.0776 2.30888 10.1318C2.5549 10.186 2.81 10.1838 3.05503 10.1252C3.1117 10.4612 3.21503 10.7819 3.35703 11.0799C2.96189 11.1856 2.54772 11.199 2.14656 11.1191C1.7454 11.0392 1.368 10.8681 1.04353 10.619C0.719063 10.3699 0.456225 10.0496 0.275342 9.68272C0.0944579 9.31584 0.000374411 8.91228 0.000366211 8.50324V6.33724C0.000366211 5.69324 0.523033 5.17057 1.16703 5.17057ZM9.91703 5.17057H12.167C12.811 5.17057 13.3337 5.69324 13.3337 6.33724V8.50391C13.3338 8.91268 13.2399 9.31601 13.0593 9.68272C12.8787 10.0494 12.6162 10.3697 12.2921 10.6188C11.968 10.8679 11.5909 11.0392 11.1901 11.1194C10.7893 11.1995 10.3754 11.1865 9.98037 11.0812C10.123 10.7826 10.2264 10.4619 10.2837 10.1259C10.5284 10.1837 10.7831 10.1855 11.0285 10.1309C11.274 10.0764 11.504 9.96698 11.7012 9.81095C11.8984 9.65492 12.0577 9.45629 12.1673 9.22993C12.2768 9.00358 12.3337 8.75537 12.3337 8.50391V6.33724C12.3337 6.29304 12.3161 6.25064 12.2849 6.21939C12.2536 6.18813 12.2112 6.17057 12.167 6.17057H10.329C10.2959 5.80327 10.1522 5.45463 9.91703 5.17057ZM6.66703 0.503906C7.19747 0.503906 7.70617 0.71462 8.08125 1.08969C8.45632 1.46477 8.66703 1.97347 8.66703 2.50391C8.66703 3.03434 8.45632 3.54305 8.08125 3.91812C7.70617 4.29319 7.19747 4.50391 6.66703 4.50391C6.1366 4.50391 5.62789 4.29319 5.25282 3.91812C4.87775 3.54305 4.66703 3.03434 4.66703 2.50391C4.66703 1.97347 4.87775 1.46477 5.25282 1.08969C5.62789 0.71462 6.1366 0.503906 6.66703 0.503906ZM11.0004 1.17057C11.4424 1.17057 11.8663 1.34617 12.1789 1.65873C12.4914 1.97129 12.667 2.39521 12.667 2.83724C12.667 3.27927 12.4914 3.70319 12.1789 4.01575C11.8663 4.32831 11.4424 4.50391 11.0004 4.50391C10.5583 4.50391 10.1344 4.32831 9.82186 4.01575C9.50929 3.70319 9.3337 3.27927 9.3337 2.83724C9.3337 2.39521 9.50929 1.97129 9.82186 1.65873C10.1344 1.34617 10.5583 1.17057 11.0004 1.17057ZM2.3337 1.17057C2.77573 1.17057 3.19965 1.34617 3.51221 1.65873C3.82477 1.97129 4.00037 2.39521 4.00037 2.83724C4.00037 3.27927 3.82477 3.70319 3.51221 4.01575C3.19965 4.32831 2.77573 4.50391 2.3337 4.50391C1.89167 4.50391 1.46775 4.32831 1.15519 4.01575C0.842628 3.70319 0.667033 3.27927 0.667033 2.83724C0.667033 2.39521 0.842628 1.97129 1.15519 1.65873C1.46775 1.34617 1.89167 1.17057 2.3337 1.17057ZM6.66703 1.50391C6.40182 1.50391 6.14746 1.60926 5.95993 1.7968C5.77239 1.98434 5.66703 2.23869 5.66703 2.50391C5.66703 2.76912 5.77239 3.02348 5.95993 3.21101C6.14746 3.39855 6.40182 3.50391 6.66703 3.50391C6.93225 3.50391 7.1866 3.39855 7.37414 3.21101C7.56168 3.02348 7.66703 2.76912 7.66703 2.50391C7.66703 2.23869 7.56168 1.98434 7.37414 1.7968C7.1866 1.60926 6.93225 1.50391 6.66703 1.50391ZM11.0004 2.17057C10.8236 2.17057 10.654 2.24081 10.529 2.36584C10.4039 2.49086 10.3337 2.66043 10.3337 2.83724C10.3337 3.01405 10.4039 3.18362 10.529 3.30864C10.654 3.43367 10.8236 3.50391 11.0004 3.50391C11.1772 3.50391 11.3467 3.43367 11.4718 3.30864C11.5968 3.18362 11.667 3.01405 11.667 2.83724C11.667 2.66043 11.5968 2.49086 11.4718 2.36584C11.3467 2.24081 11.1772 2.17057 11.0004 2.17057ZM2.3337 2.17057C2.15689 2.17057 1.98732 2.24081 1.8623 2.36584C1.73727 2.49086 1.66703 2.66043 1.66703 2.83724C1.66703 3.01405 1.73727 3.18362 1.8623 3.30864C1.98732 3.43367 2.15689 3.50391 2.3337 3.50391C2.51051 3.50391 2.68008 3.43367 2.8051 3.30864C2.93013 3.18362 3.00037 3.01405 3.00037 2.83724C3.00037 2.66043 2.93013 2.49086 2.8051 2.36584C2.68008 2.24081 2.51051 2.17057 2.3337 2.17057Z" fill="#545454"/>
</svg>
