<svg width="19" height="19" viewBox="0 0 19 19" fill="none" xmlns="http://www.w3.org/2000/svg">
<path d="M15.1559 15.7804L15.7781 15.1582L14.1115 13.4915V11.0026H13.2226V13.8471L15.1559 15.7804ZM13.667 18.1137C12.4374 18.1137 11.3894 17.6802 10.523 16.8133C9.65664 15.9463 9.22316 14.8983 9.22257 13.6693C9.22257 12.4396 9.65605 11.3916 10.523 10.5253C11.39 9.6589 12.438 9.22542 13.667 9.22483C14.8966 9.22483 15.9449 9.65831 16.8119 10.5253C17.6789 11.3922 18.1121 12.4402 18.1115 13.6693C18.1115 14.8989 17.678 15.9472 16.811 16.8142C15.9441 17.6811 14.8961 18.1143 13.667 18.1137ZM3.88924 5.66927H12.7781V3.89149H3.88924V5.66927ZM8.04479 16.3359H2.11146C1.62257 16.3359 1.2042 16.162 0.856346 15.8142C0.508494 15.4663 0.334272 15.0476 0.333679 14.5582V2.11372C0.333679 1.62483 0.507901 1.20646 0.856346 0.858604C1.20479 0.510752 1.62316 0.33653 2.11146 0.335938H14.5559C15.0448 0.335938 15.4635 0.51016 15.8119 0.858604C16.1603 1.20705 16.3343 1.62542 16.3337 2.11372V8.06927C15.9041 7.86186 15.4706 7.70631 15.0332 7.6026C14.5959 7.4989 14.1405 7.44705 13.667 7.44705C13.5041 7.44705 13.352 7.4506 13.211 7.45772C13.07 7.46483 12.9257 7.48349 12.7781 7.51372V7.44705H3.88924V9.22483H9.33368C9.06701 9.47668 8.82642 9.75075 8.6119 10.047C8.39738 10.3433 8.20835 10.6619 8.04479 11.0026H3.88924V12.7804H7.51146C7.48183 12.9285 7.46346 13.0731 7.45635 13.2142C7.44923 13.3552 7.44538 13.5069 7.44479 13.6693C7.44479 14.1582 7.48923 14.6139 7.57812 15.0364C7.66701 15.4589 7.82257 15.8921 8.04479 16.3359Z" fill="black"/>
</svg>
