<svg width="14" height="15" viewBox="0 0 14 15" fill="none" xmlns="http://www.w3.org/2000/svg">
<path d="M2.33337 2.58333C2.33337 2.25458 2.46397 1.93928 2.69644 1.70682C2.92891 1.47435 3.2442 1.34375 3.57296 1.34375H8.09379C8.42255 1.34375 8.73784 1.47435 8.97031 1.70682C9.20278 1.93928 9.33337 2.25458 9.33337 2.58333V5.71875H10.4271C10.7559 5.71875 11.0712 5.84935 11.3036 6.08182C11.5361 6.31428 11.6667 6.62958 11.6667 6.95833V12.6458C11.6667 12.8471 11.5034 13.0104 11.3021 13.0104H9.91671V11.0417C9.91671 10.8676 9.84757 10.7007 9.7245 10.5776C9.60143 10.4546 9.43451 10.3854 9.26046 10.3854H4.73962C4.56558 10.3854 4.39866 10.4546 4.27559 10.5776C4.15251 10.7007 4.08337 10.8676 4.08337 11.0417V13.0104H2.69796C2.49671 13.0104 2.33337 12.8471 2.33337 12.6458V2.58333ZM4.81254 13.0104H6.63546V11.1146H4.81254V13.0104ZM7.36462 13.0104H9.18754V11.1146H7.36462V13.0104ZM5.25004 4.26042C5.25004 4.10571 5.18858 3.95733 5.07919 3.84794C4.96979 3.73854 4.82142 3.67708 4.66671 3.67708C4.512 3.67708 4.36362 3.73854 4.25423 3.84794C4.14483 3.95733 4.08337 4.10571 4.08337 4.26042C4.08337 4.41513 4.14483 4.5635 4.25423 4.6729C4.36362 4.78229 4.512 4.84375 4.66671 4.84375C4.82142 4.84375 4.96979 4.78229 5.07919 4.6729C5.18858 4.5635 5.25004 4.41513 5.25004 4.26042ZM4.66671 6.88542C4.82142 6.88542 4.96979 6.82396 5.07919 6.71456C5.18858 6.60517 5.25004 6.45679 5.25004 6.30208C5.25004 6.14737 5.18858 5.999 5.07919 5.8896C4.96979 5.78021 4.82142 5.71875 4.66671 5.71875C4.512 5.71875 4.36362 5.78021 4.25423 5.8896C4.14483 5.999 4.08337 6.14737 4.08337 6.30208C4.08337 6.45679 4.14483 6.60517 4.25423 6.71456C4.36362 6.82396 4.512 6.88542 4.66671 6.88542ZM5.25004 8.34375C5.25004 8.18904 5.18858 8.04067 5.07919 7.93127C4.96979 7.82188 4.82142 7.76042 4.66671 7.76042C4.512 7.76042 4.36362 7.82188 4.25423 7.93127C4.14483 8.04067 4.08337 8.18904 4.08337 8.34375C4.08337 8.49846 4.14483 8.64683 4.25423 8.75623C4.36362 8.86563 4.512 8.92708 4.66671 8.92708C4.82142 8.92708 4.96979 8.86563 5.07919 8.75623C5.18858 8.64683 5.25004 8.49846 5.25004 8.34375ZM7.00004 4.84375C7.15475 4.84375 7.30312 4.78229 7.41252 4.6729C7.52192 4.5635 7.58337 4.41513 7.58337 4.26042C7.58337 4.10571 7.52192 3.95733 7.41252 3.84794C7.30312 3.73854 7.15475 3.67708 7.00004 3.67708C6.84533 3.67708 6.69696 3.73854 6.58756 3.84794C6.47817 3.95733 6.41671 4.10571 6.41671 4.26042C6.41671 4.41513 6.47817 4.5635 6.58756 4.6729C6.69696 4.78229 6.84533 4.84375 7.00004 4.84375ZM7.58337 6.30208C7.58337 6.14737 7.52192 5.999 7.41252 5.8896C7.30312 5.78021 7.15475 5.71875 7.00004 5.71875C6.84533 5.71875 6.69696 5.78021 6.58756 5.8896C6.47817 5.999 6.41671 6.14737 6.41671 6.30208C6.41671 6.45679 6.47817 6.60517 6.58756 6.71456C6.69696 6.82396 6.84533 6.88542 7.00004 6.88542C7.15475 6.88542 7.30312 6.82396 7.41252 6.71456C7.52192 6.60517 7.58337 6.45679 7.58337 6.30208ZM7.00004 8.92708C7.15475 8.92708 7.30312 8.86563 7.41252 8.75623C7.52192 8.64683 7.58337 8.49846 7.58337 8.34375C7.58337 8.18904 7.52192 8.04067 7.41252 7.93127C7.30312 7.82188 7.15475 7.76042 7.00004 7.76042C6.84533 7.76042 6.69696 7.82188 6.58756 7.93127C6.47817 8.04067 6.41671 8.18904 6.41671 8.34375C6.41671 8.49846 6.47817 8.64683 6.58756 8.75623C6.69696 8.86563 6.84533 8.92708 7.00004 8.92708ZM9.91671 8.34375C9.91671 8.18904 9.85525 8.04067 9.74585 7.93127C9.63646 7.82188 9.48808 7.76042 9.33337 7.76042C9.17866 7.76042 9.03029 7.82188 8.9209 7.93127C8.8115 8.04067 8.75004 8.18904 8.75004 8.34375C8.75004 8.49846 8.8115 8.64683 8.9209 8.75623C9.03029 8.86563 9.17866 8.92708 9.33337 8.92708C9.48808 8.92708 9.63646 8.86563 9.74585 8.75623C9.85525 8.64683 9.91671 8.49846 9.91671 8.34375Z" fill="#0051CB"/>
</svg>
