<svg width="19" height="15" viewBox="0 0 19 15" fill="none" xmlns="http://www.w3.org/2000/svg">
<path d="M0.799805 1.46797C0.799805 1.2558 0.88409 1.05231 1.03412 0.902283C1.18415 0.752254 1.38763 0.667969 1.5998 0.667969H17.0665C17.2786 0.667969 17.4821 0.752254 17.6322 0.902283C17.7822 1.05231 17.8665 1.2558 17.8665 1.46797C17.8665 1.68014 17.7822 1.88363 17.6322 2.03365C17.4821 2.18368 17.2786 2.26797 17.0665 2.26797H1.5998C1.38763 2.26797 1.18415 2.18368 1.03412 2.03365C0.88409 1.88363 0.799805 1.68014 0.799805 1.46797ZM0.799805 4.66797C0.799805 4.4558 0.88409 4.25231 1.03412 4.10228C1.18415 3.95225 1.38763 3.86797 1.5998 3.86797H13.1571C12.8412 3.86788 12.5323 3.96133 12.2694 4.13654C12.0065 4.31175 11.8013 4.56087 11.6798 4.8525L11.4238 5.46797H1.5998C1.38763 5.46797 1.18415 5.38368 1.03412 5.23365C0.88409 5.08362 0.799805 4.88014 0.799805 4.66797ZM9.42594 10.268C9.32958 10.5384 9.30805 10.8298 9.36363 11.1114C9.4192 11.393 9.54982 11.6544 9.74167 11.868H1.5998C1.38763 11.868 1.18415 11.7837 1.03412 11.6337C0.88409 11.4836 0.799805 11.2801 0.799805 11.068C0.799805 10.8558 0.88409 10.6523 1.03412 10.5023C1.18415 10.3523 1.38763 10.268 1.5998 10.268H9.42594ZM10.0905 8.66797H1.5998C1.38763 8.66797 1.18415 8.58368 1.03412 8.43365C0.88409 8.28363 0.799805 8.08014 0.799805 7.86797C0.799805 7.6558 0.88409 7.45231 1.03412 7.30228C1.18415 7.15226 1.38763 7.06797 1.5998 7.06797H10.7571L10.0905 8.66797ZM10.9353 11.3346H12.8019L12.1726 13.852C12.0446 14.3661 12.6665 14.733 13.0547 14.3704L18.2515 9.51917C18.3688 9.40963 18.4504 9.26738 18.4857 9.11088C18.521 8.95438 18.5085 8.79087 18.4497 8.64158C18.391 8.49229 18.2887 8.36413 18.1561 8.27372C18.0236 8.18332 17.8669 8.13486 17.7065 8.13464H16.5353L17.3683 5.6365C17.395 5.55645 17.4023 5.47122 17.3896 5.38781C17.3769 5.30439 17.3446 5.22518 17.2954 5.15667C17.2461 5.08816 17.1813 5.03231 17.1063 4.99371C17.0313 4.95512 16.9482 4.93487 16.8638 4.93464H13.1593C13.0539 4.93457 12.9508 4.96574 12.8631 5.02421C12.7754 5.08268 12.707 5.16584 12.6665 5.26317L10.4446 10.5965C10.4109 10.6775 10.3977 10.7655 10.4062 10.8528C10.4147 10.9401 10.4446 11.024 10.4932 11.097C10.5418 11.17 10.6077 11.2299 10.685 11.2713C10.7623 11.3128 10.8486 11.3345 10.9363 11.3346" fill="black"/>
</svg>
