<svg width="12" height="12" viewBox="0 0 12 12" fill="none" xmlns="http://www.w3.org/2000/svg">
<path d="M11.1429 2H0.857143C0.629814 2 0.411797 2.09031 0.251051 2.25105C0.0903058 2.4118 0 2.62981 0 2.85714V9.71429C0 9.94161 0.0903058 10.1596 0.251051 10.3204C0.411797 10.4811 0.629814 10.5714 0.857143 10.5714H11.1429C11.3702 10.5714 11.5882 10.4811 11.7489 10.3204C11.9097 10.1596 12 9.94161 12 9.71429V2.85714C12 2.62981 11.9097 2.4118 11.7489 2.25105C11.5882 2.09031 11.3702 2 11.1429 2ZM10.2 2.85714L6 5.76286L1.8 2.85714H10.2ZM0.857143 9.71429V3.24714L5.75571 6.63714C5.82746 6.68691 5.91269 6.71358 6 6.71358C6.08731 6.71358 6.17254 6.68691 6.24429 6.63714L11.1429 3.24714V9.71429H0.857143Z" fill="#A8A8A8"/>
</svg>
