<svg xmlns="http://www.w3.org/2000/svg" width="14" height="15" viewBox="0 0 14 15" fill="none">
  <path d="M7 1.21094C5.72411 1.21244 4.50091 1.71996 3.59871 2.62215C2.69652 3.52434 2.18901 4.74755 2.1875 6.02344C2.18633 7.06604 2.52687 8.0803 3.157 8.91094C3.157 8.91094 3.28825 9.08375 3.30969 9.10869L7 13.4609L10.6921 9.1065C10.7113 9.08331 10.843 8.91094 10.843 8.91094L10.8434 8.90963C11.4731 8.07929 11.8135 7.06554 11.8125 6.02344C11.811 4.74755 11.3035 3.52434 10.4013 2.62215C9.4991 1.71996 8.2759 1.21244 7 1.21094ZM7 7.77344C6.65389 7.77344 6.31554 7.6708 6.02776 7.47851C5.73997 7.28622 5.51567 7.0129 5.38321 6.69313C5.25076 6.37336 5.2161 6.0215 5.28363 5.68203C5.35115 5.34256 5.51782 5.03074 5.76257 4.786C6.00731 4.54126 6.31913 4.37459 6.6586 4.30706C6.99806 4.23954 7.34993 4.27419 7.6697 4.40665C7.98947 4.5391 8.26278 4.7634 8.45507 5.05119C8.64737 5.33898 8.75 5.67732 8.75 6.02344C8.74942 6.48739 8.56486 6.93217 8.2368 7.26023C7.90874 7.5883 7.46395 7.77286 7 7.77344Z" fill="#202223"/>
</svg>