<svg width="24" height="24" viewBox="0 0 24 24" fill="none" xmlns="http://www.w3.org/2000/svg">
<path d="M5.5 16C10.5 18.5 13.5 18.5 18.5 16" stroke="#202223" stroke-width="1.15" stroke-linecap="round" stroke-linejoin="round"/>
<path d="M15.5 17.5L16.5 19.5C16.5 19.5 20.671 18.172 22 16C22 15 22.53 7.853 19 5.5C17.5 4.5 15 4 15 4L14 6H12" stroke="#202223" stroke-width="1.15" stroke-linecap="round" stroke-linejoin="round"/>
<path d="M8.52802 17.5L7.52802 19.5C7.52802 19.5 3.35702 18.172 2.02802 16C2.02802 15 1.49802 7.853 5.02802 5.5C6.52802 4.5 9.02802 4 9.02802 4L10.028 6H12.028" stroke="#202223" stroke-width="1.15" stroke-linecap="round" stroke-linejoin="round"/>
<path d="M8.5 14C7.672 14 7 13.105 7 12C7 10.895 7.672 10 8.5 10C9.328 10 10 10.895 10 12C10 13.105 9.328 14 8.5 14ZM15.5 14C14.672 14 14 13.105 14 12C14 10.895 14.672 10 15.5 10C16.328 10 17 10.895 17 12C17 13.105 16.328 14 15.5 14Z" stroke="#202223" stroke-width="1.15" stroke-linecap="round" stroke-linejoin="round"/>
</svg>
