<svg xmlns="http://www.w3.org/2000/svg" width="18" height="18" viewBox="0 0 18 18" fill="none">
  <path d="M8.50736 12.2126C8.3892 12.2126 8.28053 12.1932 8.18134 12.1546C8.08142 12.1159 7.98405 12.0492 7.88924 11.9544L3.0876 7.15273C2.98549 7.05062 2.93079 6.92518 2.9235 6.77639C2.9162 6.6276 2.9709 6.49486 3.0876 6.37817C3.20429 6.26147 3.33339 6.20312 3.47488 6.20312C3.61637 6.20312 3.74547 6.26147 3.86216 6.37817L8.50736 11.0245L13.1526 6.37817C13.2547 6.27606 13.3801 6.22136 13.5289 6.21407C13.6777 6.20677 13.8104 6.26147 13.9271 6.37817C14.0438 6.49486 14.1022 6.62396 14.1022 6.76545C14.1022 6.90694 14.0438 7.03604 13.9271 7.15273L9.12548 11.9544C9.03066 12.0492 8.9333 12.1159 8.83338 12.1546C8.73418 12.1932 8.62551 12.2126 8.50736 12.2126Z" fill="#A8A8A8"/>
</svg>