<svg width="20" height="20" viewBox="0 0 20 20" fill="none" xmlns="http://www.w3.org/2000/svg">
<g clip-path="url(#clip0_9334_5281)">
<path d="M2.93 17.07C1.9749 16.1475 1.21308 15.0441 0.688989 13.824C0.164899 12.604 -0.110963 11.2918 -0.122501 9.964C-0.13404 8.63621 0.118977 7.31941 0.621786 6.09045C1.1246 4.86148 1.86713 3.74496 2.80605 2.80604C3.74498 1.86711 4.8615 1.12458 6.09046 0.621771C7.31943 0.118962 8.63622 -0.134055 9.96402 -0.122517C11.2918 -0.110979 12.604 0.164884 13.824 0.688974C15.0441 1.21306 16.1475 1.97489 17.07 2.92999C18.8916 4.81601 19.8995 7.34203 19.8767 9.964C19.854 12.586 18.8023 15.0941 16.9482 16.9482C15.0941 18.8023 12.586 19.8539 9.96402 19.8767C7.34205 19.8995 4.81602 18.8916 2.93 17.07ZM9 4.99999V11H11V4.99999H9ZM9 13V15H11V13H9Z" fill="#666666"/>
</g>
<defs>
<clipPath id="clip0_9334_5281">
<rect width="20" height="20" fill="white"/>
</clipPath>
</defs>
</svg>
