<svg xmlns="http://www.w3.org/2000/svg" width="12" height="13" viewBox="0 0 12 13" fill="none">
  <g clip-path="url(#clip0_2835_1704)">
    <path d="M8 7.77344C8.66304 7.77344 9.29893 8.03683 9.76777 8.50567C10.2366 8.97451 10.5 9.6104 10.5 10.2734V10.7734C10.5 11.0387 10.3946 11.293 10.2071 11.4805C10.0196 11.6681 9.76522 11.7734 9.5 11.7734H2.5C2.23478 11.7734 1.98043 11.6681 1.79289 11.4805C1.60536 11.293 1.5 11.0387 1.5 10.7734V10.2734C1.5 9.6104 1.76339 8.97451 2.23223 8.50567C2.70107 8.03683 3.33696 7.77344 4 7.77344H8ZM10.707 5.31394C10.7968 5.22331 10.9178 5.17042 11.0453 5.1661C11.1728 5.16177 11.2971 5.20634 11.3928 5.29067C11.4885 5.375 11.5484 5.49273 11.5601 5.61975C11.5719 5.74677 11.5346 5.87348 11.456 5.97394L11.414 6.02144L10 7.43544C9.9139 7.52153 9.79935 7.57324 9.67784 7.58088C9.55633 7.58852 9.4362 7.55156 9.34 7.47694L9.293 7.43544L8.586 6.72844C8.49537 6.63867 8.44248 6.51765 8.43816 6.39016C8.43383 6.26267 8.4784 6.13835 8.56273 6.04265C8.64707 5.94694 8.76479 5.88709 8.89181 5.87534C9.01883 5.86358 9.14554 5.90083 9.246 5.97944L9.293 6.02144L9.6465 6.37494L10.707 5.31394ZM6 1.77344C6.66304 1.77344 7.29893 2.03683 7.76777 2.50567C8.23661 2.97451 8.5 3.6104 8.5 4.27344C8.5 4.93648 8.23661 5.57236 7.76777 6.0412C7.29893 6.51005 6.66304 6.77344 6 6.77344C5.33696 6.77344 4.70107 6.51005 4.23223 6.0412C3.76339 5.57236 3.5 4.93648 3.5 4.27344C3.5 3.6104 3.76339 2.97451 4.23223 2.50567C4.70107 2.03683 5.33696 1.77344 6 1.77344Z" fill="#0077FA"/>
  </g>
  <defs>
    <clipPath id="clip0_2835_1704">
      <rect width="12" height="12" fill="white" transform="translate(0 0.773438)"/>
    </clipPath>
  </defs>
</svg>