<svg width="15" height="14" viewBox="0 0 15 14" fill="none" xmlns="http://www.w3.org/2000/svg">
<path fill-rule="evenodd" clip-rule="evenodd" d="M7.39817 13.0381L7.439 13.0614L7.45534 13.0708C7.52011 13.1058 7.59258 13.1241 7.66621 13.1241C7.73984 13.1241 7.81232 13.1058 7.87709 13.0708L7.89342 13.062L7.93484 13.0381C8.16299 12.9028 8.38561 12.7584 8.60217 12.6053C9.1628 12.2094 9.68661 11.7639 10.1673 11.2741C11.3013 10.1133 12.479 8.36908 12.479 6.125C12.479 4.84865 11.972 3.62457 11.0695 2.72205C10.1669 1.81953 8.94286 1.3125 7.6665 1.3125C6.39015 1.3125 5.16607 1.81953 4.26355 2.72205C3.36103 3.62457 2.854 4.84865 2.854 6.125C2.854 8.3685 4.03234 10.1133 5.16575 11.2741C5.64621 11.7639 6.16983 12.2094 6.73025 12.6053C6.947 12.7584 7.16982 12.9028 7.39817 13.0381ZM7.6665 7.875C8.13063 7.875 8.57575 7.69063 8.90394 7.36244C9.23213 7.03425 9.4165 6.58913 9.4165 6.125C9.4165 5.66087 9.23213 5.21575 8.90394 4.88756C8.57575 4.55937 8.13063 4.375 7.6665 4.375C7.20237 4.375 6.75726 4.55937 6.42907 4.88756C6.10088 5.21575 5.9165 5.66087 5.9165 6.125C5.9165 6.58913 6.10088 7.03425 6.42907 7.36244C6.75726 7.69063 7.20237 7.875 7.6665 7.875Z" fill="#9A9A9A"/>
</svg>
