<svg width="19" height="17" viewBox="0 0 19 17" fill="none" xmlns="http://www.w3.org/2000/svg">
<path d="M17.3292 1.875C17.3292 1.37772 17.1317 0.900805 16.7801 0.549175C16.4284 0.197544 15.9515 0 15.4542 0H2.54175C2.04447 0 1.56755 0.197544 1.21592 0.549175C0.864292 0.900805 0.666748 1.37772 0.666748 1.875V11.4625C0.666748 11.9598 0.864292 12.4367 1.21592 12.7883C1.56755 13.14 2.04447 13.3375 2.54175 13.3375H8.31258C8.2155 12.9276 8.16656 12.5079 8.16675 12.0867H6.08258L6.08341 9.79167L6.08925 9.74417C6.09995 9.69847 6.12577 9.65772 6.16252 9.62853C6.19928 9.59934 6.24481 9.58341 6.29175 9.58333H8.77675C9.01516 9.12603 9.31766 8.70511 9.67508 8.33333H6.29175L6.17175 8.33833C5.807 8.36845 5.46691 8.53461 5.21898 8.80384C4.97106 9.07307 4.83343 9.42567 4.83341 9.79167L4.83258 12.0867H2.54175C2.37599 12.0867 2.21702 12.0208 2.09981 11.9036C1.9826 11.7864 1.91675 11.6274 1.91675 11.4617V1.875C1.91675 1.70924 1.9826 1.55027 2.09981 1.43306C2.21702 1.31585 2.37599 1.25 2.54175 1.25H15.4542C15.62 1.25 15.779 1.31585 15.8962 1.43306C16.0134 1.55027 16.0792 1.70924 16.0792 1.875V7.275C16.5364 7.51264 16.9573 7.81429 17.3292 8.17083V1.875ZM11.5001 5C11.5001 4.33696 11.2367 3.70107 10.7678 3.23223C10.299 2.76339 9.66312 2.5 9.00008 2.5C8.33704 2.5 7.70115 2.76339 7.23231 3.23223C6.76347 3.70107 6.50008 4.33696 6.50008 5C6.50008 5.66304 6.76347 6.29893 7.23231 6.76777C7.70115 7.23661 8.33704 7.5 9.00008 7.5C9.66312 7.5 10.299 7.23661 10.7678 6.76777C11.2367 6.29893 11.5001 5.66304 11.5001 5ZM7.75008 5C7.75008 4.66848 7.88178 4.35054 8.1162 4.11612C8.35062 3.8817 8.66856 3.75 9.00008 3.75C9.3316 3.75 9.64954 3.8817 9.88396 4.11612C10.1184 4.35054 10.2501 4.66848 10.2501 5C10.2501 5.33152 10.1184 5.64946 9.88396 5.88388C9.64954 6.1183 9.3316 6.25 9.00008 6.25C8.66856 6.25 8.35062 6.1183 8.1162 5.88388C7.88178 5.64946 7.75008 5.33152 7.75008 5ZM18.1667 12.0833C18.1667 10.8678 17.6839 9.70197 16.8243 8.84243C15.9648 7.98288 14.799 7.5 13.5834 7.5C12.3678 7.5 11.2021 7.98288 10.3425 8.84243C9.48297 9.70197 9.00008 10.8678 9.00008 12.0833C9.00008 13.2989 9.48297 14.4647 10.3425 15.3242C11.2021 16.1838 12.3678 16.6667 13.5834 16.6667C14.799 16.6667 15.9648 16.1838 16.8243 15.3242C17.6839 14.4647 18.1667 13.2989 18.1667 12.0833ZM12.3459 9.58333C12.4313 9.5858 12.5139 9.61447 12.5825 9.66545C12.651 9.71643 12.7023 9.78726 12.7292 9.86833L13.6067 12.5017L14.4434 10.27C14.4719 10.1942 14.522 10.1283 14.5873 10.0804C14.6527 10.0326 14.7307 10.0048 14.8116 10.0006C14.8925 9.99634 14.9729 10.0158 15.0429 10.0565C15.113 10.0973 15.1696 10.1576 15.2059 10.23L15.9251 11.6667H16.5001C16.6106 11.6667 16.7166 11.7106 16.7947 11.7887C16.8728 11.8668 16.9167 11.9728 16.9167 12.0833C16.9167 12.1938 16.8728 12.2998 16.7947 12.378C16.7166 12.4561 16.6106 12.5 16.5001 12.5H15.6667C15.5894 12.5 15.5136 12.4785 15.4479 12.4379C15.3821 12.3972 15.3289 12.3391 15.2942 12.27L14.8884 11.4575L13.9734 13.8967C13.943 13.9772 13.8885 14.0463 13.8173 14.0945C13.746 14.1428 13.6616 14.1678 13.5756 14.1661C13.4896 14.1645 13.4062 14.1363 13.3369 14.0853C13.2676 14.0344 13.2157 13.9633 13.1884 13.8817L12.2976 11.2108L11.8867 12.2383C11.8558 12.3156 11.8024 12.3818 11.7335 12.4284C11.6646 12.475 11.5833 12.5 11.5001 12.5H10.6667C10.5562 12.5 10.4503 12.4561 10.3721 12.378C10.294 12.2998 10.2501 12.1938 10.2501 12.0833C10.2501 11.9728 10.294 11.8668 10.3721 11.7887C10.4503 11.7106 10.5562 11.6667 10.6667 11.6667H11.2184L11.9467 9.845C11.9785 9.76575 12.0338 9.69815 12.1052 9.65135C12.1765 9.60455 12.2606 9.58081 12.3459 9.58333Z" fill="#0066FF"/>
</svg>
