<svg width="24" height="24" viewBox="0 0 24 24" fill="none" xmlns="http://www.w3.org/2000/svg">
<path d="M4 19C3.45 19 2.97933 18.8043 2.588 18.413C2.19667 18.0217 2.00067 17.5507 2 17V7C2 6.45 2.196 5.97933 2.588 5.588C2.98 5.19667 3.45067 5.00067 4 5H20C20.55 5 21.021 5.196 21.413 5.588C21.805 5.98 22.0007 6.45067 22 7V17C22 17.55 21.8043 18.021 21.413 18.413C21.0217 18.805 20.5507 19.0007 20 19H4ZM4 17H20V7H4V17ZM9 16H15C15.2833 16 15.521 15.904 15.713 15.712C15.905 15.52 16.0007 15.2827 16 15C15.9993 14.7173 15.9033 14.48 15.712 14.288C15.5207 14.096 15.2833 14 15 14H9C8.71667 14 8.47933 14.096 8.288 14.288C8.09667 14.48 8.00067 14.7173 8 15C7.99933 15.2827 8.09533 15.5203 8.288 15.713C8.48067 15.9057 8.718 16.0013 9 16ZM6 10C6.28333 10 6.521 9.904 6.713 9.712C6.905 9.52 7.00067 9.28267 7 9C6.99933 8.71733 6.90333 8.48 6.712 8.288C6.52067 8.096 6.28333 8 6 8C5.71667 8 5.47933 8.096 5.288 8.288C5.09667 8.48 5.00067 8.71733 5 9C4.99933 9.28267 5.09533 9.52033 5.288 9.713C5.48067 9.90567 5.718 10.0013 6 10ZM9 10C9.28333 10 9.521 9.904 9.713 9.712C9.905 9.52 10.0007 9.28267 10 9C9.99933 8.71733 9.90333 8.48 9.712 8.288C9.52067 8.096 9.28333 8 9 8C8.71667 8 8.47933 8.096 8.288 8.288C8.09667 8.48 8.00067 8.71733 8 9C7.99933 9.28267 8.09533 9.52033 8.288 9.713C8.48067 9.90567 8.718 10.0013 9 10ZM12 10C12.2833 10 12.521 9.904 12.713 9.712C12.905 9.52 13.0007 9.28267 13 9C12.9993 8.71733 12.9033 8.48 12.712 8.288C12.5207 8.096 12.2833 8 12 8C11.7167 8 11.4793 8.096 11.288 8.288C11.0967 8.48 11.0007 8.71733 11 9C10.9993 9.28267 11.0953 9.52033 11.288 9.713C11.4807 9.90567 11.718 10.0013 12 10ZM15 10C15.2833 10 15.521 9.904 15.713 9.712C15.905 9.52 16.0007 9.28267 16 9C15.9993 8.71733 15.9033 8.48 15.712 8.288C15.5207 8.096 15.2833 8 15 8C14.7167 8 14.4793 8.096 14.288 8.288C14.0967 8.48 14.0007 8.71733 14 9C13.9993 9.28267 14.0953 9.52033 14.288 9.713C14.4807 9.90567 14.718 10.0013 15 10ZM18 10C18.2833 10 18.521 9.904 18.713 9.712C18.905 9.52 19.0007 9.28267 19 9C18.9993 8.71733 18.9033 8.48 18.712 8.288C18.5207 8.096 18.2833 8 18 8C17.7167 8 17.4793 8.096 17.288 8.288C17.0967 8.48 17.0007 8.71733 17 9C16.9993 9.28267 17.0953 9.52033 17.288 9.713C17.4807 9.90567 17.718 10.0013 18 10ZM6 13C6.28333 13 6.521 12.904 6.713 12.712C6.905 12.52 7.00067 12.2827 7 12C6.99933 11.7173 6.90333 11.48 6.712 11.288C6.52067 11.096 6.28333 11 6 11C5.71667 11 5.47933 11.096 5.288 11.288C5.09667 11.48 5.00067 11.7173 5 12C4.99933 12.2827 5.09533 12.5203 5.288 12.713C5.48067 12.9057 5.718 13.0013 6 13ZM9 13C9.28333 13 9.521 12.904 9.713 12.712C9.905 12.52 10.0007 12.2827 10 12C9.99933 11.7173 9.90333 11.48 9.712 11.288C9.52067 11.096 9.28333 11 9 11C8.71667 11 8.47933 11.096 8.288 11.288C8.09667 11.48 8.00067 11.7173 8 12C7.99933 12.2827 8.09533 12.5203 8.288 12.713C8.48067 12.9057 8.718 13.0013 9 13ZM12 13C12.2833 13 12.521 12.904 12.713 12.712C12.905 12.52 13.0007 12.2827 13 12C12.9993 11.7173 12.9033 11.48 12.712 11.288C12.5207 11.096 12.2833 11 12 11C11.7167 11 11.4793 11.096 11.288 11.288C11.0967 11.48 11.0007 11.7173 11 12C10.9993 12.2827 11.0953 12.5203 11.288 12.713C11.4807 12.9057 11.718 13.0013 12 13ZM15 13C15.2833 13 15.521 12.904 15.713 12.712C15.905 12.52 16.0007 12.2827 16 12C15.9993 11.7173 15.9033 11.48 15.712 11.288C15.5207 11.096 15.2833 11 15 11C14.7167 11 14.4793 11.096 14.288 11.288C14.0967 11.48 14.0007 11.7173 14 12C13.9993 12.2827 14.0953 12.5203 14.288 12.713C14.4807 12.9057 14.718 13.0013 15 13ZM18 13C18.2833 13 18.521 12.904 18.713 12.712C18.905 12.52 19.0007 12.2827 19 12C18.9993 11.7173 18.9033 11.48 18.712 11.288C18.5207 11.096 18.2833 11 18 11C17.7167 11 17.4793 11.096 17.288 11.288C17.0967 11.48 17.0007 11.7173 17 12C16.9993 12.2827 17.0953 12.5203 17.288 12.713C17.4807 12.9057 17.718 13.0013 18 13Z" fill="black"/>
</svg>
