<svg width="24" height="24" viewBox="0 0 24 24" fill="none" xmlns="http://www.w3.org/2000/svg">
<path d="M18.4401 3.0625H5.56006C4.89759 3.06435 4.26277 3.32833 3.79433 3.79677C3.32589 4.26521 3.06191 4.90003 3.06006 5.5625V18.4425C3.06191 19.105 3.32589 19.7398 3.79433 20.2082C4.26277 20.6767 4.89759 20.9407 5.56006 20.9425H18.4401C19.1031 20.9425 19.739 20.6791 20.2078 20.2103C20.6767 19.7414 20.9401 19.1055 20.9401 18.4425V5.5625C20.9401 4.89946 20.6767 4.26357 20.2078 3.79473C19.739 3.32589 19.1031 3.0625 18.4401 3.0625ZM19.9401 18.4425C19.9374 18.8395 19.7786 19.2195 19.4978 19.5003C19.2171 19.781 18.8371 19.9399 18.4401 19.9425H5.56006C5.16304 19.9399 4.78303 19.781 4.50229 19.5003C4.22156 19.2195 4.06268 18.8395 4.06006 18.4425V5.5625C4.06268 5.16548 4.22156 4.78547 4.50229 4.50474C4.78303 4.224 5.16304 4.06512 5.56006 4.0625H18.4401C18.8371 4.06512 19.2171 4.224 19.4978 4.50474C19.7786 4.78547 19.9374 5.16548 19.9401 5.5625V18.4425Z" fill="#202223"/>
<path d="M6.37598 10.75C6.37598 10.4848 6.48133 10.2304 6.66887 10.0429C6.85641 9.85536 7.11076 9.75 7.37598 9.75C7.64119 9.75 7.89555 9.85536 8.08308 10.0429C8.27062 10.2304 8.37598 10.4848 8.37598 10.75V17.25C8.37598 17.5152 8.27062 17.7696 8.08308 17.9571C7.89555 18.1446 7.64119 18.25 7.37598 18.25C7.11076 18.25 6.85641 18.1446 6.66887 17.9571C6.48133 17.7696 6.37598 17.5152 6.37598 17.25V10.75Z" fill="#202223"/>
<path d="M7.37598 7.74219C7.92826 7.74219 8.37598 7.29447 8.37598 6.74219C8.37598 6.1899 7.92826 5.74219 7.37598 5.74219C6.82369 5.74219 6.37598 6.1899 6.37598 6.74219C6.37598 7.29447 6.82369 7.74219 7.37598 7.74219Z" fill="#202223"/>
<path d="M17.6199 13.3704V17.2504C17.6199 17.5156 17.5145 17.7699 17.327 17.9575C17.1395 18.145 16.8851 18.2504 16.6199 18.2504C16.3547 18.2504 16.1003 18.145 15.9128 17.9575C15.7252 17.7699 15.6199 17.5156 15.6199 17.2504V13.3704C15.6199 12.942 15.4497 12.5312 15.1469 12.2284C14.844 11.9255 14.4332 11.7554 14.0049 11.7554C13.5766 11.7554 13.1658 11.9255 12.8629 12.2284C12.56 12.5312 12.3899 12.942 12.3899 13.3704V17.2504C12.3899 17.5156 12.2845 17.7699 12.097 17.9575C11.9095 18.145 11.6551 18.2504 11.3899 18.2504C11.1247 18.2504 10.8703 18.145 10.6828 17.9575C10.4952 17.7699 10.3899 17.5156 10.3899 17.2504V10.7504C10.394 10.4864 10.5007 10.2345 10.6873 10.0478C10.874 9.86116 11.126 9.75448 11.3899 9.75035C11.5593 9.74571 11.7267 9.78694 11.8746 9.86968C12.0225 9.95241 12.1452 10.0736 12.2299 10.2204C12.7798 9.90871 13.4018 9.74689 14.0338 9.75108C14.6659 9.75527 15.2857 9.92532 15.8314 10.2442C16.3771 10.5631 16.8295 11.0197 17.1433 11.5683C17.4572 12.1169 17.6215 12.7383 17.6199 13.3704Z" fill="#202223"/>
</svg>
