<svg width="125" height="32" viewBox="0 0 125 32" fill="none" xmlns="http://www.w3.org/2000/svg">
<path d="M16.3379 14.0463C16.3379 7.70342 21.4798 2.56152 27.8226 2.56152V17.6352C27.8226 23.9781 22.6807 29.12 16.3379 29.12V14.0463Z" fill="url(#paint0_linear_286_2611)"/>
<path fill-rule="evenodd" clip-rule="evenodd" d="M15.7047 27.2605C15.7047 20.688 10.3767 15.36 3.8042 15.36V17.2195C3.8042 23.7919 9.13225 29.12 15.7047 29.12V27.2605Z" fill="url(#paint1_linear_286_2611)"/>
<path d="M40.6937 22.2877C39.6746 22.2877 38.7814 22.012 38.0141 21.4605C37.2588 20.909 36.7313 20.1477 36.4316 19.1766L38.6615 18.2594C38.8174 18.8349 39.0692 19.2665 39.4169 19.5543C39.7645 19.842 40.1901 19.9859 40.6937 19.9859C41.2572 19.9859 41.6948 19.806 42.0065 19.4464C42.3182 19.0867 42.474 18.5831 42.474 17.9357V9.12386H44.9018V17.9178C44.9018 18.6371 44.7879 19.2725 44.5601 19.824C44.3443 20.3635 44.0446 20.8191 43.6609 21.1907C43.2893 21.5504 42.8457 21.8202 42.3302 22C41.8266 22.1918 41.2811 22.2877 40.6937 22.2877ZM50.9788 12.9004C51.6622 12.9004 52.2856 13.0203 52.8491 13.26C53.4245 13.4878 53.9161 13.8115 54.3237 14.2312C54.7433 14.6388 55.067 15.1303 55.2948 15.7058C55.5346 16.2813 55.6545 16.9107 55.6545 17.5941C55.6545 18.2774 55.5346 18.9068 55.2948 19.4823C55.067 20.0578 54.7433 20.5553 54.3237 20.9749C53.9161 21.3826 53.4245 21.7063 52.8491 21.946C52.2856 22.1738 51.6622 22.2877 50.9788 22.2877C50.2954 22.2877 49.666 22.1738 49.0905 21.946C48.5271 21.7063 48.0355 21.3826 47.6159 20.9749C47.2083 20.5553 46.8846 20.0578 46.6448 19.4823C46.417 18.9068 46.3031 18.2774 46.3031 17.5941C46.3031 16.9107 46.417 16.2813 46.6448 15.7058C46.8846 15.1303 47.2083 14.6388 47.6159 14.2312C48.0355 13.8115 48.5271 13.4878 49.0905 13.26C49.666 13.0203 50.2954 12.9004 50.9788 12.9004ZM50.9788 20.1117C51.2785 20.1117 51.5663 20.0578 51.842 19.9499C52.1297 19.83 52.3815 19.6622 52.5973 19.4464C52.8131 19.2306 52.981 18.9668 53.1008 18.6551C53.2327 18.3434 53.2987 17.9897 53.2987 17.5941C53.2987 17.1984 53.2327 16.8447 53.1008 16.533C52.981 16.2213 52.8131 15.9576 52.5973 15.7418C52.3815 15.526 52.1297 15.3641 51.842 15.2562C51.5663 15.1363 51.2785 15.0764 50.9788 15.0764C50.6671 15.0764 50.3734 15.1363 50.0976 15.2562C49.8219 15.3641 49.5761 15.526 49.3603 15.7418C49.1445 15.9576 48.9707 16.2213 48.8388 16.533C48.7189 16.8447 48.6589 17.1984 48.6589 17.5941C48.6589 17.9897 48.7189 18.3434 48.8388 18.6551C48.9707 18.9668 49.1445 19.2306 49.3603 19.4464C49.5761 19.6622 49.8219 19.83 50.0976 19.9499C50.3734 20.0578 50.6671 20.1117 50.9788 20.1117ZM57.0804 9.12386H59.4362V12.9903L59.2923 14.2491H59.4362C59.652 13.8775 59.9877 13.5598 60.4433 13.296C60.8989 13.0323 61.4624 12.9004 62.1337 12.9004C62.6972 12.9004 63.2307 13.0203 63.7343 13.26C64.2498 13.4878 64.6994 13.8115 65.083 14.2312C65.4787 14.6388 65.7904 15.1303 66.0182 15.7058C66.2459 16.2813 66.3598 16.9107 66.3598 17.5941C66.3598 18.2774 66.2459 18.9068 66.0182 19.4823C65.7904 20.0578 65.4787 20.5553 65.083 20.9749C64.6994 21.3826 64.2498 21.7063 63.7343 21.946C63.2307 22.1738 62.6972 22.2877 62.1337 22.2877C61.4624 22.2877 60.8989 22.1559 60.4433 21.8921C59.9877 21.6283 59.652 21.3106 59.4362 20.939H59.2923V22H57.0804V9.12386ZM61.6482 20.1117C61.9599 20.1117 62.2536 20.0518 62.5294 19.9319C62.8171 19.812 63.0689 19.6442 63.2847 19.4284C63.5005 19.2126 63.6743 18.9488 63.8062 18.6371C63.9381 18.3254 64.004 17.9777 64.004 17.5941C64.004 17.2104 63.9381 16.8627 63.8062 16.551C63.6743 16.2393 63.5005 15.9755 63.2847 15.7597C63.0689 15.5439 62.8171 15.3761 62.5294 15.2562C62.2536 15.1363 61.9599 15.0764 61.6482 15.0764C61.3365 15.0764 61.0367 15.1363 60.749 15.2562C60.4733 15.3641 60.2275 15.526 60.0117 15.7418C59.7959 15.9576 59.622 16.2213 59.4902 16.533C59.3583 16.8447 59.2923 17.1984 59.2923 17.5941C59.2923 17.9897 59.3583 18.3434 59.4902 18.6551C59.622 18.9668 59.7959 19.2306 60.0117 19.4464C60.2275 19.6622 60.4733 19.83 60.749 19.9499C61.0367 20.0578 61.3365 20.1117 61.6482 20.1117Z" fill="black"/>
<path d="M67.2877 9.12386H69.8594L71.8555 16.6409L72.1433 18.0257H72.2871L72.6648 16.6409L74.5171 10.8503H76.783L78.6533 16.6409L79.0129 18.0077H79.1568L79.4266 16.6409L81.2968 9.12386H83.8685L80.4516 22H78.1138L76.0996 15.7957L75.722 14.375H75.5781L75.2004 15.7957L73.1863 22H70.8485L67.2877 9.12386ZM86.1267 11.9113C85.9228 11.9113 85.725 11.8753 85.5332 11.8034C85.3534 11.7195 85.1915 11.6116 85.0476 11.4797C84.9158 11.3358 84.8079 11.174 84.7239 10.9941C84.652 10.8143 84.616 10.6165 84.616 10.4007C84.616 10.1849 84.652 9.98706 84.7239 9.80723C84.8079 9.62739 84.9158 9.47154 85.0476 9.33966C85.1915 9.19579 85.3534 9.08789 85.5332 9.01595C85.725 8.93203 85.9228 8.89007 86.1267 8.89007C86.5463 8.89007 86.9059 9.03993 87.2057 9.33966C87.5054 9.62739 87.6552 9.98107 87.6552 10.4007C87.6552 10.8203 87.5054 11.18 87.2057 11.4797C86.9059 11.7674 86.5463 11.9113 86.1267 11.9113ZM84.9577 22V13.1881H87.3136V22H84.9577ZM89.0362 20.0578L93.532 15.2023H89.18V13.1881H96.4274V15.1303L91.9315 19.9859H96.4993V22H89.0362V20.0578ZM103.329 21.0649H103.185C102.909 21.4006 102.573 21.6883 102.178 21.9281C101.794 22.1678 101.296 22.2877 100.685 22.2877C100.229 22.2877 99.7978 22.2098 99.3901 22.054C98.9945 21.9101 98.6468 21.7063 98.3471 21.4425C98.0474 21.1788 97.8136 20.861 97.6458 20.4894C97.4779 20.1177 97.394 19.7101 97.394 19.2665C97.394 18.8109 97.4839 18.4033 97.6637 18.0436C97.8436 17.672 98.0953 17.3543 98.419 17.0905C98.7427 16.8268 99.1204 16.6289 99.552 16.4971C99.9956 16.3532 100.475 16.2813 100.991 16.2813C101.566 16.2813 102.04 16.3292 102.411 16.4251C102.783 16.5091 103.089 16.599 103.329 16.6949V16.4251C103.329 15.9576 103.143 15.5739 102.771 15.2742C102.399 14.9625 101.938 14.8066 101.386 14.8066C100.571 14.8066 99.8817 15.1483 99.3182 15.8317L97.6098 14.6628C98.5449 13.4878 99.8217 12.9004 101.44 12.9004C102.807 12.9004 103.85 13.2241 104.569 13.8715C105.289 14.5069 105.648 15.454 105.648 16.7129V22H103.329V21.0649ZM103.329 18.4213C103.053 18.2894 102.765 18.1875 102.465 18.1156C102.178 18.0317 101.86 17.9897 101.512 17.9897C100.949 17.9897 100.511 18.1156 100.199 18.3673C99.8997 18.6071 99.7498 18.9068 99.7498 19.2665C99.7498 19.6262 99.8937 19.9139 100.181 20.1297C100.481 20.3455 100.823 20.4534 101.206 20.4534C101.518 20.4534 101.806 20.3995 102.07 20.2916C102.333 20.1717 102.555 20.0218 102.735 19.842C102.927 19.6502 103.071 19.4344 103.167 19.1946C103.275 18.9428 103.329 18.6851 103.329 18.4213ZM107.521 13.1881H109.733V14.411H109.877C109.985 14.1952 110.129 13.9974 110.309 13.8175C110.489 13.6377 110.687 13.4818 110.902 13.35C111.13 13.2181 111.37 13.1162 111.622 13.0442C111.885 12.9723 112.143 12.9363 112.395 12.9363C112.707 12.9363 112.97 12.9663 113.186 13.0263C113.414 13.0862 113.606 13.1641 113.762 13.26L113.132 15.4001C112.988 15.3281 112.827 15.2742 112.647 15.2382C112.479 15.1903 112.269 15.1663 112.017 15.1663C111.694 15.1663 111.4 15.2322 111.136 15.3641C110.872 15.484 110.645 15.6578 110.453 15.8856C110.273 16.1134 110.129 16.3832 110.021 16.6949C109.925 16.9946 109.877 17.3243 109.877 17.684V22H107.521V13.1881ZM120.864 20.939H120.72C120.505 21.3106 120.169 21.6283 119.713 21.8921C119.258 22.1559 118.694 22.2877 118.023 22.2877C117.459 22.2877 116.92 22.1738 116.404 21.946C115.901 21.7063 115.451 21.3826 115.056 20.9749C114.672 20.5553 114.366 20.0578 114.139 19.4823C113.911 18.9068 113.797 18.2774 113.797 17.5941C113.797 16.9107 113.911 16.2813 114.139 15.7058C114.366 15.1303 114.672 14.6388 115.056 14.2312C115.451 13.8115 115.901 13.4878 116.404 13.26C116.92 13.0203 117.459 12.9004 118.023 12.9004C118.694 12.9004 119.258 13.0323 119.713 13.296C120.169 13.5598 120.505 13.8775 120.72 14.2491H120.864L120.72 12.9903V9.12386H123.076V22H120.864V20.939ZM118.509 20.1117C118.82 20.1117 119.114 20.0578 119.39 19.9499C119.677 19.83 119.929 19.6622 120.145 19.4464C120.361 19.2306 120.535 18.9668 120.667 18.6551C120.798 18.3434 120.864 17.9897 120.864 17.5941C120.864 17.1984 120.798 16.8447 120.667 16.533C120.535 16.2213 120.361 15.9576 120.145 15.7418C119.929 15.526 119.677 15.3641 119.39 15.2562C119.114 15.1363 118.82 15.0764 118.509 15.0764C118.197 15.0764 117.897 15.1363 117.609 15.2562C117.334 15.3761 117.088 15.5439 116.872 15.7597C116.656 15.9755 116.482 16.2393 116.35 16.551C116.219 16.8627 116.153 17.2104 116.153 17.5941C116.153 17.9777 116.219 18.3254 116.35 18.6371C116.482 18.9488 116.656 19.2126 116.872 19.4284C117.088 19.6442 117.334 19.812 117.609 19.9319C117.897 20.0518 118.197 20.1117 118.509 20.1117Z" fill="black"/>
<defs>
<linearGradient id="paint0_linear_286_2611" x1="20.3686" y1="26.4144" x2="27.8226" y2="4.79773" gradientUnits="userSpaceOnUse">
<stop stop-color="#0066FF"/>
<stop offset="1" stop-color="#B3B1FF"/>
</linearGradient>
<linearGradient id="paint1_linear_286_2611" x1="9.75447" y1="15.36" x2="9.75447" y2="29.12" gradientUnits="userSpaceOnUse">
<stop stop-color="#0066FF"/>
<stop offset="1" stop-color="#00D1FF"/>
</linearGradient>
</defs>
</svg>
