  <svg
          xmlns="http://www.w3.org/2000/svg"
          width="12"
          height="12"
          viewBox="0 0 12 12"
          fill="none"
        >
          <path
            d="M10.772 5.5225C10.924 5.7355 11 5.8425 11 6C11 6.158 10.924 6.2645 10.772 6.4775C10.089 7.4355 8.3445 9.5 6 9.5C3.655 9.5 1.911 7.435 1.228 6.4775C1.076 6.2645 1 6.1575 1 6C1 5.842 1.076 5.7355 1.228 5.5225C1.911 4.5645 3.6555 2.5 6 2.5C8.345 2.5 10.089 4.565 10.772 5.5225Z"
            stroke="black"
            stroke-width="0.75"
            stroke-linecap="round"
            stroke-linejoin="round"
          />
          <path
            d="M7.5 6C7.5 5.60218 7.34196 5.22064 7.06066 4.93934C6.77936 4.65804 6.39782 4.5 6 4.5C5.60218 4.5 5.22064 4.65804 4.93934 4.93934C4.65804 5.22064 4.5 5.60218 4.5 6C4.5 6.39782 4.65804 6.77936 4.93934 7.06066C5.22064 7.34196 5.60218 7.5 6 7.5C6.39782 7.5 6.77936 7.34196 7.06066 7.06066C7.34196 6.77936 7.5 6.39782 7.5 6Z"
            stroke="black"
            stroke-width="0.75"
            stroke-linecap="round"
            stroke-linejoin="round"
          />
        </svg>