  <svg
            class="icon_img"
            xmlns="http://www.w3.org/2000/svg"
            width="16"
            height="16"
            viewBox="0 0 16 16"
            fill="none"
          >
            <path
              d="M5.51143 9.78906C5.38876 9.78906 5.30609 9.80106 5.26343 9.81306V10.5984C5.31409 10.6104 5.37743 10.6137 5.46476 10.6137C5.78409 10.6137 5.98076 10.4524 5.98076 10.1797C5.98076 9.93573 5.81143 9.78906 5.51143 9.78906ZM7.83609 9.79706C7.70276 9.79706 7.61609 9.80906 7.56476 9.82106V11.5611C7.61609 11.5731 7.69876 11.5731 7.77343 11.5731C8.31809 11.5771 8.67276 11.2771 8.67276 10.6424C8.67676 10.0891 8.35343 9.79706 7.83609 9.79706Z"
              fill="#DC2424"
            />
            <path
              d="M9.33342 1.33594H4.00008C3.64646 1.33594 3.30732 1.47641 3.05727 1.72646C2.80722 1.97651 2.66675 2.31565 2.66675 2.66927V13.3359C2.66675 13.6896 2.80722 14.0287 3.05727 14.2787C3.30732 14.5288 3.64646 14.6693 4.00008 14.6693H12.0001C12.3537 14.6693 12.6928 14.5288 12.9429 14.2787C13.1929 14.0287 13.3334 13.6896 13.3334 13.3359V5.33594L9.33342 1.33594ZM6.33208 10.7959C6.12608 10.9893 5.82208 11.0759 5.46808 11.0759C5.39944 11.0767 5.33083 11.0727 5.26275 11.0639V12.0146H4.66675V9.3906C4.93572 9.35048 5.20749 9.3322 5.47941 9.33594C5.85075 9.33594 6.11475 9.4066 6.29275 9.5486C6.46208 9.68327 6.57675 9.90394 6.57675 10.1639C6.57608 10.4253 6.48942 10.6459 6.33208 10.7959ZM8.87008 11.6993C8.59008 11.9319 8.16408 12.0426 7.64342 12.0426C7.33142 12.0426 7.11075 12.0226 6.96075 12.0026V9.39127C7.22982 9.352 7.50151 9.3335 7.77342 9.33594C8.27808 9.33594 8.60608 9.4266 8.86208 9.61994C9.13875 9.82527 9.31208 10.1526 9.31208 10.6226C9.31208 11.1313 9.12608 11.4826 8.87008 11.6993ZM11.3334 9.84927H10.3121V10.4566H11.2667V10.9459H10.3121V12.0153H9.70808V9.35594H11.3334V9.84927ZM9.33342 6.0026H8.66675V2.66927L12.0001 6.0026H9.33342Z"
              fill="#DC2424"
            />
          </svg>